<svg width="240" height="240" viewBox="0 0 240 240" fill="none" xmlns="http://www.w3.org/2000/svg">
<g filter="url(#filter0_ii)">
<path d="M35.0426 153.909C33.6654 156.586 34.2018 159.822 36.3715 161.938L38.1144 163.636C43.1498 157.821 49.0187 151.51 56.1366 144.575C56.6396 144.085 57.1574 143.848 57.6623 143.396L46.4499 132.468C39.9314 143.957 36.1303 151.807 35.0426 153.909Z" fill="#E9EDF0"/>
<path d="M96.0394 183.822C88.8506 190.763 82.3426 196.483 76.3638 201.385L78.7426 203.682C80.9493 205.813 84.3268 206.326 87.1039 204.946C90.8236 203.095 96.6734 200.437 109.091 193.76L97.2606 182.338C96.7931 182.831 96.5481 183.333 96.0394 183.822Z" fill="#E9EDF0"/>
<path d="M91.3374 148.641C86.3082 143.62 72.1647 148.122 65.5207 154.754C43.2942 176.947 33.2557 192.681 28.7485 201.972C27.4563 204.633 27.9945 207.82 30.0896 209.912C32.1883 212.009 35.3852 212.541 38.053 211.251C47.1491 206.841 62.7152 196.865 85.2063 174.41C92.5118 167.112 96.1165 153.415 91.3428 148.647L91.3374 148.641Z" fill="#E9EDF0"/>
<path d="M21.7306 93.5981L2.03929 113.95C-0.18711 116.251 -0.643993 119.813 0.93334 122.635C2.4726 125.42 5.69616 126.838 8.7638 125.989C19.4063 123.04 28.7705 121.794 35.0762 123.465C44.0471 106.981 53.687 91.8067 63.8961 78.0228C57.9911 74.1102 38.4775 76.2895 21.7306 93.5981Z" fill="#E9EDF0"/>
<path d="M119.231 239.241C121.964 240.619 125.275 240.086 127.439 237.927L147.516 217.923C163.059 202.43 165.794 182.442 162.268 176.104C147.104 187.492 131.742 197.109 117.41 205.16C118.399 210.724 117.741 216.123 115.403 231.89C114.946 234.942 116.528 237.894 119.231 239.241Z" fill="#E9EDF0"/>
<path d="M239.59 6.79993C239.34 3.35246 236.598 0.627529 233.166 0.369741C216.066 -0.919202 199.033 1.18668 182.338 6.29888C183.594 17.7832 189.527 30.2115 199.655 40.3524C209.905 50.6131 222.655 56.5513 234.33 57.6623C238.827 41.8846 240.959 24.9867 239.59 6.79993Z" fill="#E9EDF0"/>
<path d="M188.726 50.4109C177.024 38.6793 169.878 24.6087 167.585 10.9091C125.356 28.2714 84.931 66.187 52.9868 119.451L68.8572 135.361C79.7006 130.947 92.8643 129.782 101.213 138.15C109.574 146.533 108.389 159.724 103.988 170.58L120.38 187.013C161.26 162.314 208.853 123.402 229.091 71.6305C215.092 69.51 200.619 62.3334 188.726 50.4109ZM178.778 110.231C165.071 123.973 142.763 123.973 129.054 110.231C115.344 96.4871 115.344 74.1218 129.054 60.3799C142.763 46.638 165.071 46.638 178.778 60.3799C192.488 74.1237 192.488 96.4871 178.778 110.231Z" fill="#E9EDF0"/>
<path d="M160.509 100.957C156.457 105.516 149.766 106.54 142.96 102.326L138.316 107.552L133.293 103.087L137.615 98.2247C134.317 95.0144 131.81 91.1298 130.861 88.2752L137.731 83.644C138.834 86.7384 140.901 90.5011 144.233 93.463C147.154 96.0588 150.158 96.7056 151.979 94.6568C153.71 92.7094 153.17 90.0151 150.511 85.3638C146.671 78.6459 145.202 72.7572 149.618 67.7893C153.63 63.2758 159.947 62.5704 166.391 66.3648L170.716 61.4981L175.737 65.9611L171.729 70.4706C175.027 73.6758 176.701 76.4448 177.66 78.767L171.022 83.2418C170.196 81.4954 168.887 78.216 165.196 74.9354C161.864 71.9735 159.513 72.4517 158.236 73.8886C156.734 75.5788 157.573 78.2479 160.467 83.7621C164.66 91.3372 164.612 96.3411 160.509 100.957Z" fill="#E9EDF0"/>
</g>
<defs>
<filter id="filter0_ii" x="-5" y="-5" width="250" height="250" filterUnits="userSpaceOnUse" color-interpolation-filters="sRGB">
<feFlood flood-opacity="0" result="BackgroundImageFix"/>
<feBlend mode="normal" in="SourceGraphic" in2="BackgroundImageFix" result="shape"/>
<feColorMatrix in="SourceAlpha" type="matrix" values="0 0 0 0 0 0 0 0 0 0 0 0 0 0 0 0 0 0 127 0" result="hardAlpha"/>
<feOffset dx="-5" dy="-5"/>
<feGaussianBlur stdDeviation="5"/>
<feComposite in2="hardAlpha" operator="arithmetic" k2="-1" k3="1"/>
<feColorMatrix type="matrix" values="0 0 0 0 1 0 0 0 0 1 0 0 0 0 1 0 0 0 1 0"/>
<feBlend mode="normal" in2="shape" result="effect1_innerShadow"/>
<feColorMatrix in="SourceAlpha" type="matrix" values="0 0 0 0 0 0 0 0 0 0 0 0 0 0 0 0 0 0 127 0" result="hardAlpha"/>
<feOffset dx="5" dy="5"/>
<feGaussianBlur stdDeviation="5"/>
<feComposite in2="hardAlpha" operator="arithmetic" k2="-1" k3="1"/>
<feColorMatrix type="matrix" values="0 0 0 0 0.819608 0 0 0 0 0.85098 0 0 0 0 0.901961 0 0 0 0.75 0"/>
<feBlend mode="normal" in2="effect1_innerShadow" result="effect2_innerShadow"/>
</filter>
</defs>
</svg>
